<?xml version="1.0" encoding="utf-8"?>
<!-- Generator: Adobe Illustrator 17.0.1, SVG Export Plug-In . SVG Version: 6.00 Build 0)  -->
<!DOCTYPE svg PUBLIC "-//W3C//DTD SVG 1.1//EN" "http://www.w3.org/Graphics/SVG/1.1/DTD/svg11.dtd">
<svg version="1.1" id="Livello_1" xmlns="http://www.w3.org/2000/svg" xmlns:xlink="http://www.w3.org/1999/xlink" x="0px" y="0px"
	 width="792px" height="276px" viewBox="0 0 792 276" enable-background="new 0 0 792 276" xml:space="preserve">
<g>
	<polygon fill="#D1DF55" points="296.93,95.197 248.634,95.197 272.782,53.372 296.93,11.546 321.078,53.372 345.226,95.197 	"/>
	<polygon fill="#7FC342" points="346.769,11.485 395.1,11.485 370.934,53.341 346.769,95.197 322.603,53.341 298.438,11.485 	"/>
	<polygon fill="#105A69" points="446.309,11.845 494.432,11.845 470.37,53.521 446.309,95.197 422.247,53.521 398.185,11.845 	"/>
	<polygon fill="#99D3B9" points="396.643,95.197 348.311,95.197 372.477,53.341 396.643,11.485 420.808,53.341 444.974,95.197 	"/>
	<polygon fill="#5CC7D6" points="495.975,95.197 447.644,95.197 471.809,53.341 495.975,11.485 520.14,53.341 544.306,95.197 	"/>
</g>
<g>
	<rect x="42.903" y="203.74" fill="#88817F" width="706.195" height="1.819"/>
</g>
<g>
	<path fill="#105A69" d="M157.518,241.45v1.008c-0.399,0.092-0.695,0.154-0.889,0.188c-1.516,0.263-2.393,0.51-2.632,0.743
		c-0.239,0.234-0.359,0.755-0.359,1.564v0.598l-0.085,6.87l0.051,9.98c0,0.798,0.117,1.305,0.351,1.521
		c0.233,0.217,1.034,0.405,2.401,0.564c0.262,0.034,0.644,0.103,1.145,0.205v1.008c-1.834-0.125-3.601-0.188-5.298-0.188
		c-1.755,0-3.68,0.063-5.776,0.188v-1.008c0.33-0.091,0.581-0.147,0.752-0.171c1.618-0.262,2.543-0.504,2.777-0.727
		c0.233-0.222,0.35-0.783,0.35-1.683l-0.034-0.855l0.051-6.271c0-6.448-0.017-10.015-0.051-10.698
		c-0.022-0.376-0.145-0.667-0.366-0.872s-1.081-0.449-2.578-0.734c-0.205-0.045-0.505-0.119-0.902-0.223v-1.008
		c2.476,0.126,4.41,0.188,5.802,0.188C153.781,241.638,155.544,241.576,157.518,241.45z"/>
	<path fill="#105A69" d="M165.096,245.176h0.991l-0.393,4.358l4.734-0.052l0.137,0.271c-0.285,0.463-0.547,0.959-0.786,1.49
		c-1.345-0.061-2.706-0.1-4.084-0.12l-0.154,8.784v0.103c0,1.356,0.151,2.333,0.453,2.931c0.301,0.599,0.817,0.897,1.546,0.897
		c0.604,0,1.401-0.257,2.393-0.769l0.496,0.974c-1.242,0.775-2.188,1.285-2.837,1.529c-0.649,0.245-1.213,0.368-1.692,0.368
		c-0.752,0-1.39-0.197-1.914-0.59c-0.524-0.394-0.872-0.938-1.042-1.633c-0.103-0.387-0.154-1.572-0.154-3.555
		c0-2.119,0.063-5.132,0.188-9.04c-0.798,0.021-1.624,0.06-2.478,0.12v-0.924c0.957-0.431,1.786-1.021,2.487-1.771
		C163.686,247.799,164.389,246.675,165.096,245.176z"/>
	<path fill="#105A69" d="M175.869,254.097l-1.111-0.119c0.228-1.186,0.387-2.364,0.479-3.538c2.218-1.002,4.22-1.504,6.006-1.504
		c0.773,0,1.473,0.111,2.099,0.333c0.626,0.223,1.121,0.53,1.484,0.923c0.364,0.394,0.64,0.863,0.828,1.41s0.282,1.419,0.282,2.614
		l-0.154,7.059c0,0.957,0.108,1.584,0.325,1.88c0.216,0.297,0.496,0.444,0.837,0.444c0.41,0,1.054-0.308,1.931-0.923l0.53,0.7
		c-1.606,1.436-2.484,2.199-2.632,2.291c-0.319,0.182-0.718,0.273-1.196,0.273c-0.741,0-1.313-0.186-1.718-0.556
		s-0.675-0.994-0.812-1.872c-1.367,1.061-2.381,1.729-3.042,2.009c-0.661,0.278-1.379,0.419-2.153,0.419
		c-1.265,0-2.285-0.385-3.059-1.154c-0.775-0.769-1.162-1.752-1.162-2.947c0-0.729,0.137-1.388,0.41-1.975
		c0.273-0.586,0.667-1.102,1.179-1.547c0.398-0.33,1.071-0.729,2.017-1.195c2.222-1.083,4.158-1.954,5.811-2.615
		c-0.057-1.606-0.324-2.672-0.801-3.195c-0.478-0.524-1.21-0.787-2.199-0.787c-0.932,0-1.731,0.288-2.396,0.863
		C176.986,251.964,176.392,252.866,175.869,254.097z M183.047,255.993c-2.974,1.334-4.771,2.305-5.392,2.914
		c-0.622,0.61-0.932,1.342-0.932,2.196s0.233,1.538,0.701,2.051c0.467,0.513,1.014,0.769,1.641,0.769
		c0.649,0,1.353-0.213,2.111-0.641c0.757-0.427,1.258-0.908,1.504-1.443c0.245-0.536,0.367-1.51,0.367-2.923V255.993z"/>
	<path fill="#105A69" d="M191.804,243.774v-0.957c2.028-0.649,3.862-1.396,5.503-2.238l0.461,0.307
		c-0.273,2.143-0.41,6.125-0.41,11.946c0,5.879,0.022,9.129,0.068,9.75c0.045,0.621,0.173,1.037,0.384,1.247
		c0.211,0.211,1.034,0.516,2.47,0.914v0.957c-1.831-0.125-3.252-0.188-4.264-0.188c-1.081,0-2.479,0.063-4.196,0.188v-0.957
		c1.54-0.479,2.378-0.785,2.514-0.922s0.221-0.468,0.255-0.992c0.034-0.694,0.051-3.833,0.051-9.416l-0.034-8.117v-0.24
		c0-0.626-0.085-1.036-0.256-1.23c-0.171-0.193-0.439-0.29-0.803-0.29C193.239,243.535,192.658,243.615,191.804,243.774z"/>
	<path fill="#105A69" d="M203.483,251.909v-0.957c1.914-0.489,3.714-1.219,5.4-2.188l0.444,0.359
		c-0.228,2.415-0.342,5.839-0.342,10.271c0,2.074,0.051,3.35,0.154,3.828c0.068,0.319,0.188,0.55,0.359,0.692
		s0.763,0.361,1.777,0.658c0.125,0.033,0.313,0.091,0.564,0.17v0.957c-1.493-0.125-2.717-0.188-3.674-0.188
		c-0.581,0-2.142,0.063-4.683,0.188v-0.957c1.538-0.375,2.404-0.72,2.598-1.033c0.193-0.313,0.291-1.951,0.291-4.914l-0.017-3.64
		v-0.7c0-1.276-0.085-2.045-0.256-2.308c-0.171-0.262-0.444-0.394-0.82-0.394C205.038,251.755,204.44,251.807,203.483,251.909z
		 M207.738,240.544c0.501,0,0.925,0.175,1.273,0.521c0.348,0.348,0.521,0.772,0.521,1.273c0,0.49-0.174,0.912-0.521,1.265
		c-0.348,0.354-0.772,0.53-1.273,0.53c-0.49,0-0.909-0.177-1.256-0.53c-0.348-0.353-0.521-0.774-0.521-1.265
		c0-0.501,0.173-0.926,0.521-1.273C206.83,240.719,207.248,240.544,207.738,240.544z"/>
	<path fill="#105A69" d="M217.589,254.097l-1.111-0.119c0.228-1.186,0.387-2.364,0.479-3.538c2.218-1.002,4.22-1.504,6.006-1.504
		c0.773,0,1.473,0.111,2.099,0.333c0.626,0.223,1.121,0.53,1.484,0.923c0.364,0.394,0.64,0.863,0.828,1.41s0.282,1.419,0.282,2.614
		l-0.154,7.059c0,0.957,0.108,1.584,0.325,1.88c0.216,0.297,0.496,0.444,0.837,0.444c0.41,0,1.054-0.308,1.931-0.923l0.53,0.7
		c-1.606,1.436-2.484,2.199-2.632,2.291c-0.319,0.182-0.718,0.273-1.196,0.273c-0.741,0-1.313-0.186-1.718-0.556
		s-0.675-0.994-0.812-1.872c-1.367,1.061-2.381,1.729-3.042,2.009c-0.661,0.278-1.379,0.419-2.153,0.419
		c-1.265,0-2.285-0.385-3.059-1.154c-0.775-0.769-1.162-1.752-1.162-2.947c0-0.729,0.137-1.388,0.41-1.975
		c0.273-0.586,0.667-1.102,1.179-1.547c0.398-0.33,1.071-0.729,2.017-1.195c2.222-1.083,4.158-1.954,5.811-2.615
		c-0.057-1.606-0.324-2.672-0.801-3.195c-0.478-0.524-1.21-0.787-2.199-0.787c-0.932,0-1.731,0.288-2.396,0.863
		C218.706,251.964,218.112,252.866,217.589,254.097z M224.767,255.993c-2.974,1.334-4.771,2.305-5.392,2.914
		c-0.622,0.61-0.932,1.342-0.932,2.196s0.233,1.538,0.701,2.051c0.467,0.513,1.014,0.769,1.641,0.769
		c0.649,0,1.353-0.213,2.111-0.641c0.757-0.427,1.258-0.908,1.504-1.443c0.245-0.536,0.367-1.51,0.367-2.923V255.993z"/>
	<path fill="#105A69" d="M233.489,252.097v-0.99c2.051-0.479,3.908-1.202,5.571-2.171l0.461,0.29
		c-0.16,0.969-0.256,1.966-0.291,2.991l2.17-2.153c0.364-0.318,0.792-0.569,1.282-0.752c0.672-0.25,1.373-0.376,2.102-0.376
		c1.629,0,2.859,0.541,3.691,1.624c0.558,0.717,0.837,1.954,0.837,3.708l-0.051,4.136c0,2.769,0.034,4.403,0.103,4.904
		c0.057,0.342,0.165,0.582,0.325,0.719c0.159,0.137,0.701,0.313,1.624,0.529c0.171,0.046,0.427,0.108,0.769,0.188v0.957
		c-1.348-0.125-2.546-0.188-3.596-0.188c-0.914,0-2.478,0.063-4.692,0.188v-0.957c1.331-0.387,2.079-0.648,2.245-0.785
		s0.267-0.359,0.301-0.667c0.125-1.128,0.188-2.854,0.188-5.179c0-2.483-0.051-3.981-0.154-4.494
		c-0.16-0.752-0.496-1.333-1.008-1.743s-1.128-0.615-1.846-0.615c-0.752,0-1.493,0.22-2.222,0.658
		c-0.729,0.438-1.268,1.028-1.615,1.769c-0.348,0.741-0.521,1.835-0.521,3.281c0,4.102,0.085,6.32,0.256,6.656
		c0.171,0.337,0.837,0.652,2,0.949c0.148,0.033,0.364,0.091,0.649,0.17v0.957c-1.53-0.125-2.814-0.188-3.853-0.188
		c-1.005,0-2.5,0.063-4.487,0.188v-0.957c1.354-0.318,2.122-0.552,2.306-0.7c0.114-0.091,0.195-0.33,0.241-0.718
		c0.125-1.082,0.188-2.558,0.188-4.426c0-3.863-0.04-5.959-0.12-6.289c-0.125-0.479-0.461-0.719-1.008-0.719
		c-0.251,0-0.644,0.041-1.179,0.12C234.007,252.035,233.785,252.063,233.489,252.097z"/>
	<path fill="#105A69" d="M264.88,242.458v-1.008c1.903,0.126,3.35,0.188,4.342,0.188c1.128,0,2.341-0.062,3.641-0.188
		c0.466,1.197,0.841,2.109,1.125,2.736c0.375,0.844,1.859,4.041,4.452,9.593c1.103,2.36,2.217,4.662,3.343,6.908l7.293-15.355
		c0.444-0.946,0.974-2.24,1.588-3.882c1.528,0.126,2.696,0.188,3.505,0.188c0.752,0,2.023-0.062,3.813-0.188v1.008
		c-0.342,0.092-0.598,0.154-0.769,0.188c-1.584,0.319-2.467,0.553-2.649,0.7c-0.296,0.229-0.444,0.804-0.444,1.727v0.223
		l-0.068,5.417c0,6.813,0.028,10.949,0.085,12.407c0.011,0.308,0.1,0.536,0.265,0.684c0.165,0.148,1.137,0.393,2.914,0.734
		c0.148,0.023,0.37,0.075,0.667,0.154v1.008c-2.051-0.125-3.857-0.188-5.417-0.188c-1.595,0-3.481,0.063-5.657,0.188v-1.008
		c0.444-0.113,0.78-0.193,1.008-0.239c1.39-0.262,2.185-0.447,2.384-0.556c0.199-0.107,0.333-0.259,0.402-0.453
		c0.103-0.33,0.154-1.253,0.154-2.768v-14.92c-1.036,2.051-3.375,6.99-7.018,14.816c-1.002,2.154-1.742,3.801-2.22,4.939h-0.973
		c-2.55-5.662-5.675-12.247-9.374-19.756l0.222,15.928c0,1.265,0.103,1.988,0.308,2.17c0.205,0.183,1.065,0.405,2.581,0.667
		c0.171,0.034,0.433,0.092,0.786,0.171v1.008c-1.971-0.125-3.566-0.188-4.785-0.188c-1.219,0-2.832,0.063-4.836,0.188v-1.008
		c0.33-0.091,0.575-0.147,0.735-0.171c1.504-0.296,2.347-0.553,2.529-0.769c0.273-0.319,0.416-1.1,0.427-2.342l0.085-3.846
		c0.057-3.509,0.085-6.909,0.085-10.202l-0.017-2.085c0-0.831-0.051-1.353-0.154-1.563s-0.268-0.361-0.496-0.453
		c-0.433-0.171-1.401-0.37-2.905-0.599C265.62,242.63,265.301,242.562,264.88,242.458z"/>
	<path fill="#105A69" d="M314.875,261.565l0.649,1.008l-3.405,2.512c-0.468,0.319-0.952,0.553-1.454,0.701
		c-0.73,0.216-1.478,0.324-2.242,0.324c-1.859,0-3.448-0.745-4.766-2.238c-1.317-1.492-1.976-3.509-1.976-6.05
		c0-2.734,0.79-4.928,2.37-6.579c1.58-1.652,3.51-2.479,5.792-2.479c1.768,0,3.134,0.487,4.098,1.461
		c0.964,0.975,1.457,2.464,1.48,4.469c-0.476,0.273-0.912,0.61-1.309,1.009c-0.81-0.011-1.317-0.017-1.522-0.017
		c-3.022,0-5.65,0.045-7.885,0.137c-0.012,2.552,0.421,4.483,1.299,5.793c0.877,1.322,2.051,1.982,3.521,1.982
		c0.74,0,1.515-0.146,2.324-0.436C312.658,262.872,313.667,262.34,314.875,261.565z M312.396,254.079
		c-0.069-1.127-0.32-1.982-0.753-2.563c-0.64-0.855-1.502-1.282-2.586-1.282c-0.937,0-1.77,0.322-2.501,0.966
		s-1.273,1.706-1.627,3.188c0.422,0.011,0.742,0.017,0.959,0.017C307.76,254.404,309.93,254.296,312.396,254.079z"/>
	<path fill="#105A69" d="M328.332,243.774v-0.957c1.23-0.353,2.124-0.641,2.683-0.863c0.558-0.222,1.504-0.681,2.837-1.375
		l0.428,0.342c-0.251,2.643-0.377,7.564-0.377,14.766c0,3.987,0.052,6.209,0.154,6.664c0.103,0.456,0.444,0.684,1.025,0.684
		c0.342,0,0.945-0.073,1.812-0.222v0.923c-2.382,0.707-4.228,1.441-5.537,2.205l-0.427-0.325c0.137-0.854,0.222-1.709,0.256-2.563
		c-1.425,1.288-2.47,2.091-3.136,2.41c-0.667,0.318-1.462,0.479-2.384,0.479c-1.744,0-3.188-0.652-4.333-1.957
		c-1.145-1.305-1.718-3.153-1.718-5.546c0-1.641,0.279-3.053,0.838-4.238c0.421-0.911,1.031-1.774,1.828-2.589
		c0.798-0.814,1.689-1.464,2.675-1.948s1.974-0.727,2.966-0.727c0.455,0,0.962,0.058,1.521,0.171
		c0.558,0.114,1.168,0.285,1.829,0.513c0.022-0.569,0.033-0.899,0.033-0.991c0-2.677-0.051-4.158-0.153-4.443
		c-0.137-0.421-0.513-0.633-1.128-0.633c-0.205,0-0.57,0.044-1.094,0.13C328.793,243.707,328.594,243.737,328.332,243.774z
		 M331.271,257.002c0-2.244-0.052-3.543-0.154-3.896c-0.194-0.684-0.641-1.262-1.342-1.734c-0.7-0.473-1.569-0.71-2.605-0.71
		c-1.299,0-2.404,0.539-3.316,1.615c-0.911,1.077-1.367,2.658-1.367,4.742c0,2.143,0.462,3.774,1.385,4.896
		c0.923,1.123,2.027,1.684,3.315,1.684c0.854,0,1.635-0.245,2.341-0.734c0.707-0.49,1.174-1.083,1.402-1.777
		C331.157,260.392,331.271,259.03,331.271,257.002z"/>
	<path fill="#105A69" d="M339.873,251.909v-0.957c1.914-0.489,3.714-1.219,5.4-2.188l0.444,0.359
		c-0.229,2.415-0.342,5.839-0.342,10.271c0,2.074,0.052,3.35,0.153,3.828c0.068,0.319,0.188,0.55,0.359,0.692
		s0.763,0.361,1.777,0.658c0.125,0.033,0.313,0.091,0.564,0.17v0.957c-1.493-0.125-2.718-0.188-3.675-0.188
		c-0.581,0-2.143,0.063-4.683,0.188v-0.957c1.538-0.375,2.403-0.72,2.598-1.033c0.193-0.313,0.291-1.951,0.291-4.914l-0.018-3.64
		v-0.7c0-1.276-0.086-2.045-0.256-2.308c-0.172-0.262-0.445-0.394-0.82-0.394C341.428,251.755,340.83,251.807,339.873,251.909z
		 M344.129,240.544c0.501,0,0.925,0.175,1.272,0.521c0.348,0.348,0.521,0.772,0.521,1.273c0,0.49-0.174,0.912-0.521,1.265
		c-0.348,0.354-0.771,0.53-1.272,0.53c-0.49,0-0.909-0.177-1.257-0.53c-0.348-0.353-0.521-0.774-0.521-1.265
		c0-0.501,0.173-0.926,0.521-1.273C343.22,240.719,343.639,240.544,344.129,240.544z"/>
	<path fill="#105A69" d="M364.488,254.678l-1.145-0.085c-0.046-1.442-0.407-2.509-1.085-3.2c-0.679-0.692-1.604-1.038-2.777-1.038
		c-0.844,0-1.652,0.23-2.427,0.692c-0.775,0.462-1.382,1.215-1.82,2.259s-0.658,2.228-0.658,3.551c0,2.122,0.516,3.779,1.547,4.972
		c1.031,1.191,2.225,1.788,3.58,1.788c1.425,0,3.139-0.564,5.145-1.692l0.633,1.025c-1.789,1.322-3.276,2.25-4.461,2.786
		c-0.57,0.25-1.265,0.375-2.085,0.375c-1.994,0-3.606-0.58-4.837-1.742c-1.629-1.539-2.443-3.623-2.443-6.256
		c0-2.723,0.854-4.961,2.563-6.716c1.709-1.754,3.816-2.632,6.323-2.632c1.709,0,3.355,0.438,4.939,1.316
		c-0.08,0.387-0.194,0.889-0.342,1.504C364.944,252.394,364.729,253.425,364.488,254.678z"/>
	<path fill="#105A69" d="M371.417,254.097l-1.111-0.119c0.229-1.186,0.388-2.364,0.479-3.538c2.219-1.002,4.221-1.504,6.007-1.504
		c0.773,0,1.473,0.111,2.099,0.333c0.625,0.223,1.12,0.53,1.484,0.923c0.363,0.394,0.64,0.863,0.827,1.41s0.282,1.419,0.282,2.614
		l-0.154,7.059c0,0.957,0.108,1.584,0.324,1.88c0.217,0.297,0.496,0.444,0.838,0.444c0.41,0,1.054-0.308,1.932-0.923l0.529,0.7
		c-1.606,1.436-2.484,2.199-2.632,2.291c-0.319,0.182-0.718,0.273-1.196,0.273c-0.741,0-1.313-0.186-1.718-0.556
		s-0.675-0.994-0.812-1.872c-1.367,1.061-2.382,1.729-3.042,2.009c-0.661,0.278-1.379,0.419-2.153,0.419
		c-1.265,0-2.284-0.385-3.059-1.154c-0.775-0.769-1.162-1.752-1.162-2.947c0-0.729,0.137-1.388,0.41-1.975
		c0.273-0.586,0.666-1.102,1.179-1.547c0.398-0.33,1.07-0.729,2.017-1.195c2.222-1.083,4.158-1.954,5.811-2.615
		c-0.057-1.606-0.324-2.672-0.802-3.195c-0.477-0.524-1.21-0.787-2.199-0.787c-0.932,0-1.73,0.288-2.396,0.863
		C372.534,251.964,371.939,252.866,371.417,254.097z M378.595,255.993c-2.974,1.334-4.771,2.305-5.392,2.914
		c-0.621,0.61-0.932,1.342-0.932,2.196s0.233,1.538,0.7,2.051c0.468,0.513,1.015,0.769,1.641,0.769c0.65,0,1.354-0.213,2.111-0.641
		c0.757-0.427,1.259-0.908,1.504-1.443c0.244-0.536,0.367-1.51,0.367-2.923V255.993z"/>
	<path fill="#105A69" d="M387.352,243.774v-0.957c2.027-0.649,3.862-1.396,5.503-2.238l0.461,0.307
		c-0.273,2.143-0.41,6.125-0.41,11.946c0,5.879,0.023,9.129,0.068,9.75c0.046,0.621,0.174,1.037,0.385,1.247
		c0.211,0.211,1.034,0.516,2.47,0.914v0.957c-1.831-0.125-3.252-0.188-4.264-0.188c-1.08,0-2.479,0.063-4.196,0.188v-0.957
		c1.54-0.479,2.378-0.785,2.515-0.922c0.136-0.137,0.22-0.468,0.255-0.992c0.033-0.694,0.051-3.833,0.051-9.416l-0.034-8.117v-0.24
		c0-0.626-0.085-1.036-0.257-1.23c-0.17-0.193-0.438-0.29-0.803-0.29C388.787,243.535,388.206,243.615,387.352,243.774z"/>
	<path fill="#105A69" d="M432.073,261.548l0.717,1.299c-1.831,1.151-3.589,2-5.272,2.547s-3.424,0.82-5.222,0.82
		c-2.286,0-4.362-0.521-6.228-1.564c-1.866-1.042-3.279-2.518-4.24-4.426c-0.962-1.908-1.442-4.025-1.442-6.35
		c0-3.793,1.237-6.897,3.711-9.313c2.475-2.415,5.748-3.623,9.82-3.623c2.503,0,5.289,0.513,8.361,1.538
		c-0.023,1.003-0.035,1.755-0.035,2.256c0,1.459,0.086,2.99,0.257,4.598h-1.436c-0.421-1.994-0.871-3.367-1.349-4.119
		c-0.479-0.752-1.252-1.353-2.322-1.803c-1.069-0.45-2.39-0.676-3.961-0.676c-3.301,0-5.787,1.174-7.46,3.521
		c-1.298,1.834-1.946,4.135-1.946,6.904c0,3.304,0.913,5.91,2.74,7.818c1.826,1.908,4.22,2.862,7.179,2.862
		c1.275,0,2.516-0.165,3.723-0.495C428.874,263.012,430.343,262.414,432.073,261.548z"/>
	<path fill="#105A69" d="M436.181,243.774v-0.957c2.027-0.649,3.862-1.396,5.503-2.238l0.461,0.307
		c-0.273,2.143-0.41,6.125-0.41,11.946c0,5.879,0.023,9.129,0.068,9.75c0.046,0.621,0.174,1.037,0.385,1.247
		c0.211,0.211,1.034,0.516,2.47,0.914v0.957c-1.831-0.125-3.252-0.188-4.264-0.188c-1.08,0-2.479,0.063-4.196,0.188v-0.957
		c1.54-0.479,2.378-0.785,2.515-0.922c0.136-0.137,0.22-0.468,0.255-0.992c0.033-0.694,0.051-3.833,0.051-9.416l-0.034-8.117v-0.24
		c0-0.626-0.085-1.036-0.257-1.23c-0.17-0.193-0.438-0.29-0.803-0.29C437.616,243.535,437.035,243.615,436.181,243.774z"/>
	<path fill="#105A69" d="M447.859,251.909v-0.957c1.914-0.489,3.714-1.219,5.4-2.188l0.444,0.359
		c-0.229,2.415-0.342,5.839-0.342,10.271c0,2.074,0.052,3.35,0.153,3.828c0.068,0.319,0.188,0.55,0.359,0.692
		s0.763,0.361,1.777,0.658c0.125,0.033,0.313,0.091,0.564,0.17v0.957c-1.493-0.125-2.718-0.188-3.675-0.188
		c-0.581,0-2.143,0.063-4.683,0.188v-0.957c1.538-0.375,2.403-0.72,2.598-1.033c0.193-0.313,0.291-1.951,0.291-4.914l-0.018-3.64
		v-0.7c0-1.276-0.086-2.045-0.256-2.308c-0.172-0.262-0.445-0.394-0.82-0.394C449.414,251.755,448.816,251.807,447.859,251.909z
		 M452.115,240.544c0.501,0,0.925,0.175,1.272,0.521c0.348,0.348,0.521,0.772,0.521,1.273c0,0.49-0.174,0.912-0.521,1.265
		c-0.348,0.354-0.771,0.53-1.272,0.53c-0.49,0-0.909-0.177-1.257-0.53c-0.348-0.353-0.521-0.774-0.521-1.265
		c0-0.501,0.173-0.926,0.521-1.273C451.206,240.719,451.625,240.544,452.115,240.544z"/>
	<path fill="#105A69" d="M458.957,252.097v-0.99c2.051-0.479,3.907-1.202,5.571-2.171l0.462,0.29
		c-0.16,0.969-0.257,1.966-0.291,2.991l2.17-2.153c0.365-0.318,0.792-0.569,1.282-0.752c0.672-0.25,1.373-0.376,2.103-0.376
		c1.629,0,2.859,0.541,3.691,1.624c0.558,0.717,0.837,1.954,0.837,3.708l-0.052,4.136c0,2.769,0.035,4.403,0.104,4.904
		c0.057,0.342,0.164,0.582,0.324,0.719c0.159,0.137,0.701,0.313,1.623,0.529c0.172,0.046,0.428,0.108,0.77,0.188v0.957
		c-1.348-0.125-2.546-0.188-3.597-0.188c-0.913,0-2.478,0.063-4.692,0.188v-0.957c1.331-0.387,2.079-0.648,2.246-0.785
		c0.166-0.137,0.267-0.359,0.301-0.667c0.125-1.128,0.188-2.854,0.188-5.179c0-2.483-0.051-3.981-0.153-4.494
		c-0.16-0.752-0.495-1.333-1.009-1.743c-0.512-0.41-1.127-0.615-1.846-0.615c-0.752,0-1.492,0.22-2.221,0.658
		c-0.729,0.438-1.269,1.028-1.615,1.769c-0.348,0.741-0.521,1.835-0.521,3.281c0,4.102,0.086,6.32,0.256,6.656
		c0.172,0.337,0.838,0.652,2,0.949c0.147,0.033,0.364,0.091,0.649,0.17v0.957c-1.53-0.125-2.814-0.188-3.854-0.188
		c-1.004,0-2.5,0.063-4.486,0.188v-0.957c1.354-0.318,2.122-0.552,2.306-0.7c0.114-0.091,0.194-0.33,0.24-0.718
		c0.126-1.082,0.188-2.558,0.188-4.426c0-3.863-0.04-5.959-0.12-6.289c-0.125-0.479-0.461-0.719-1.008-0.719
		c-0.251,0-0.644,0.041-1.18,0.12C459.476,252.035,459.253,252.063,458.957,252.097z"/>
	<path fill="#105A69" d="M480.497,251.909v-0.957c1.914-0.489,3.714-1.219,5.4-2.188l0.444,0.359
		c-0.229,2.415-0.342,5.839-0.342,10.271c0,2.074,0.052,3.35,0.153,3.828c0.068,0.319,0.188,0.55,0.359,0.692
		s0.763,0.361,1.777,0.658c0.125,0.033,0.313,0.091,0.564,0.17v0.957c-1.493-0.125-2.718-0.188-3.675-0.188
		c-0.581,0-2.143,0.063-4.683,0.188v-0.957c1.538-0.375,2.403-0.72,2.598-1.033c0.193-0.313,0.291-1.951,0.291-4.914l-0.018-3.64
		v-0.7c0-1.276-0.086-2.045-0.256-2.308c-0.172-0.262-0.445-0.394-0.82-0.394C482.052,251.755,481.454,251.807,480.497,251.909z
		 M484.753,240.544c0.501,0,0.925,0.175,1.272,0.521c0.348,0.348,0.521,0.772,0.521,1.273c0,0.49-0.174,0.912-0.521,1.265
		c-0.348,0.354-0.771,0.53-1.272,0.53c-0.49,0-0.909-0.177-1.257-0.53c-0.348-0.353-0.521-0.774-0.521-1.265
		c0-0.501,0.173-0.926,0.521-1.273C483.844,240.719,484.263,240.544,484.753,240.544z"/>
	<path fill="#105A69" d="M505.113,254.678l-1.145-0.085c-0.046-1.442-0.407-2.509-1.085-3.2c-0.679-0.692-1.604-1.038-2.777-1.038
		c-0.844,0-1.652,0.23-2.427,0.692c-0.775,0.462-1.382,1.215-1.82,2.259s-0.658,2.228-0.658,3.551c0,2.122,0.516,3.779,1.547,4.972
		c1.031,1.191,2.225,1.788,3.58,1.788c1.425,0,3.139-0.564,5.145-1.692l0.633,1.025c-1.789,1.322-3.276,2.25-4.461,2.786
		c-0.57,0.25-1.265,0.375-2.085,0.375c-1.994,0-3.606-0.58-4.837-1.742c-1.629-1.539-2.443-3.623-2.443-6.256
		c0-2.723,0.854-4.961,2.563-6.716c1.709-1.754,3.816-2.632,6.323-2.632c1.709,0,3.355,0.438,4.939,1.316
		c-0.08,0.387-0.194,0.889-0.342,1.504C505.569,252.394,505.354,253.425,505.113,254.678z"/>
	<path fill="#105A69" d="M520.013,242.458v-1.008c2.791,0.126,4.683,0.188,5.674,0.188c0.615,0,2.581-0.062,5.896-0.188v1.008
		c-2.051,0.354-3.253,0.588-3.605,0.701c-0.251,0.08-0.434,0.205-0.547,0.376c-0.171,0.239-0.268,0.735-0.291,1.487
		c-0.022,0.752-0.033,4.967-0.033,12.646c0,1.515,0.017,3.537,0.051,6.066h7.537c1.127,0,1.862-0.068,2.204-0.205
		s0.694-0.438,1.06-0.906c0.364-0.467,1.048-1.641,2.051-3.52h1.453l-1.367,3.811c-0.24,0.707-0.53,1.635-0.872,2.785
		c-4.713-0.125-8.816-0.188-12.311-0.188c-2.471,0-4.765,0.063-6.882,0.188v-1.008c1.736-0.318,2.757-0.538,3.063-0.658
		c0.306-0.119,0.513-0.281,0.62-0.486c0.108-0.205,0.162-0.804,0.162-1.795l0.086-10.477l-0.052-6.75
		c0-0.581-0.085-0.945-0.257-1.094c-0.262-0.228-1.104-0.467-2.529-0.718C520.873,242.67,520.502,242.584,520.013,242.458z"/>
	<path fill="#105A69" d="M545.244,257.72c0-2.757,0.78-4.939,2.343-6.545c1.563-1.607,3.616-2.41,6.159-2.41
		c2.406,0,4.313,0.724,5.723,2.17c1.408,1.447,2.113,3.47,2.113,6.067c0,2.803-0.79,5.021-2.37,6.656
		c-1.58,1.636-3.624,2.452-6.133,2.452c-2.43,0-4.343-0.729-5.74-2.188C545.942,262.465,545.244,260.397,545.244,257.72z
		 M548.525,256.233c0,1.868,0.119,3.246,0.359,4.135c0.376,1.436,0.973,2.516,1.789,3.239c0.815,0.724,1.766,1.085,2.851,1.085
		c1.403,0,2.556-0.532,3.458-1.598c0.901-1.065,1.352-2.777,1.352-5.136c0-2.643-0.511-4.6-1.531-5.87
		c-1.022-1.271-2.224-1.906-3.604-1.906c-1.369,0-2.49,0.499-3.364,1.496C548.961,252.676,548.525,254.193,548.525,256.233z"/>
	<path fill="#105A69" d="M565.126,252.097v-0.99c2.051-0.479,3.907-1.202,5.571-2.171l0.462,0.29
		c-0.16,0.969-0.257,1.966-0.291,2.991l2.17-2.153c0.365-0.318,0.792-0.569,1.282-0.752c0.672-0.25,1.373-0.376,2.103-0.376
		c1.629,0,2.859,0.541,3.691,1.624c0.558,0.717,0.837,1.954,0.837,3.708l-0.052,4.136c0,2.769,0.035,4.403,0.104,4.904
		c0.057,0.342,0.164,0.582,0.324,0.719c0.159,0.137,0.701,0.313,1.623,0.529c0.172,0.046,0.428,0.108,0.77,0.188v0.957
		c-1.348-0.125-2.546-0.188-3.597-0.188c-0.913,0-2.478,0.063-4.692,0.188v-0.957c1.331-0.387,2.079-0.648,2.246-0.785
		c0.166-0.137,0.267-0.359,0.301-0.667c0.125-1.128,0.188-2.854,0.188-5.179c0-2.483-0.051-3.981-0.153-4.494
		c-0.16-0.752-0.495-1.333-1.009-1.743c-0.512-0.41-1.127-0.615-1.846-0.615c-0.752,0-1.492,0.22-2.221,0.658
		c-0.729,0.438-1.269,1.028-1.615,1.769c-0.348,0.741-0.521,1.835-0.521,3.281c0,4.102,0.086,6.32,0.256,6.656
		c0.172,0.337,0.838,0.652,2,0.949c0.147,0.033,0.364,0.091,0.649,0.17v0.957c-1.53-0.125-2.814-0.188-3.854-0.188
		c-1.004,0-2.5,0.063-4.486,0.188v-0.957c1.354-0.318,2.122-0.552,2.306-0.7c0.114-0.091,0.194-0.33,0.24-0.718
		c0.126-1.082,0.188-2.558,0.188-4.426c0-3.863-0.04-5.959-0.12-6.289c-0.125-0.479-0.461-0.719-1.008-0.719
		c-0.251,0-0.644,0.041-1.18,0.12C565.645,252.035,565.422,252.063,565.126,252.097z"/>
	<path fill="#105A69" d="M595.844,243.774v-0.957c1.23-0.353,2.124-0.641,2.683-0.863c0.558-0.222,1.504-0.681,2.837-1.375
		l0.428,0.342c-0.251,2.643-0.377,7.564-0.377,14.766c0,3.987,0.052,6.209,0.154,6.664c0.103,0.456,0.444,0.684,1.025,0.684
		c0.342,0,0.945-0.073,1.812-0.222v0.923c-2.382,0.707-4.228,1.441-5.537,2.205l-0.427-0.325c0.137-0.854,0.222-1.709,0.256-2.563
		c-1.425,1.288-2.47,2.091-3.136,2.41c-0.667,0.318-1.462,0.479-2.384,0.479c-1.744,0-3.188-0.652-4.333-1.957
		c-1.145-1.305-1.718-3.153-1.718-5.546c0-1.641,0.279-3.053,0.838-4.238c0.421-0.911,1.031-1.774,1.828-2.589
		c0.798-0.814,1.689-1.464,2.675-1.948s1.974-0.727,2.966-0.727c0.455,0,0.962,0.058,1.521,0.171
		c0.558,0.114,1.168,0.285,1.829,0.513c0.022-0.569,0.033-0.899,0.033-0.991c0-2.677-0.051-4.158-0.153-4.443
		c-0.137-0.421-0.513-0.633-1.128-0.633c-0.205,0-0.57,0.044-1.094,0.13C596.305,243.707,596.105,243.737,595.844,243.774z
		 M598.783,257.002c0-2.244-0.052-3.543-0.154-3.896c-0.194-0.684-0.641-1.262-1.342-1.734c-0.7-0.473-1.569-0.71-2.605-0.71
		c-1.299,0-2.404,0.539-3.316,1.615c-0.911,1.077-1.367,2.658-1.367,4.742c0,2.143,0.462,3.774,1.385,4.896
		c0.923,1.123,2.027,1.684,3.315,1.684c0.854,0,1.635-0.245,2.341-0.734c0.707-0.49,1.174-1.083,1.402-1.777
		C598.669,260.392,598.783,259.03,598.783,257.002z"/>
	<path fill="#105A69" d="M607.745,257.72c0-2.757,0.78-4.939,2.343-6.545c1.563-1.607,3.616-2.41,6.159-2.41
		c2.406,0,4.313,0.724,5.723,2.17c1.408,1.447,2.113,3.47,2.113,6.067c0,2.803-0.79,5.021-2.37,6.656
		c-1.58,1.636-3.624,2.452-6.133,2.452c-2.43,0-4.343-0.729-5.74-2.188C608.443,262.465,607.745,260.397,607.745,257.72z
		 M611.026,256.233c0,1.868,0.119,3.246,0.359,4.135c0.376,1.436,0.973,2.516,1.789,3.239c0.815,0.724,1.766,1.085,2.851,1.085
		c1.403,0,2.556-0.532,3.458-1.598c0.901-1.065,1.352-2.777,1.352-5.136c0-2.643-0.511-4.6-1.531-5.87
		c-1.022-1.271-2.224-1.906-3.604-1.906c-1.369,0-2.49,0.499-3.364,1.496C611.462,252.676,611.026,254.193,611.026,256.233z"/>
	<path fill="#105A69" d="M627.627,252.097v-0.99c2.051-0.479,3.907-1.202,5.571-2.171l0.462,0.29
		c-0.16,0.969-0.257,1.966-0.291,2.991l2.17-2.153c0.365-0.318,0.792-0.569,1.282-0.752c0.672-0.25,1.373-0.376,2.103-0.376
		c1.629,0,2.859,0.541,3.691,1.624c0.558,0.717,0.837,1.954,0.837,3.708l-0.052,4.136c0,2.769,0.035,4.403,0.104,4.904
		c0.057,0.342,0.164,0.582,0.324,0.719c0.159,0.137,0.701,0.313,1.623,0.529c0.172,0.046,0.428,0.108,0.77,0.188v0.957
		c-1.348-0.125-2.546-0.188-3.597-0.188c-0.913,0-2.478,0.063-4.692,0.188v-0.957c1.331-0.387,2.079-0.648,2.246-0.785
		c0.166-0.137,0.267-0.359,0.301-0.667c0.125-1.128,0.188-2.854,0.188-5.179c0-2.483-0.051-3.981-0.153-4.494
		c-0.16-0.752-0.495-1.333-1.009-1.743c-0.512-0.41-1.127-0.615-1.846-0.615c-0.752,0-1.492,0.22-2.221,0.658
		c-0.729,0.438-1.269,1.028-1.615,1.769c-0.348,0.741-0.521,1.835-0.521,3.281c0,4.102,0.086,6.32,0.256,6.656
		c0.172,0.337,0.838,0.652,2,0.949c0.147,0.033,0.364,0.091,0.649,0.17v0.957c-1.53-0.125-2.814-0.188-3.854-0.188
		c-1.004,0-2.5,0.063-4.486,0.188v-0.957c1.354-0.318,2.122-0.552,2.306-0.7c0.114-0.091,0.194-0.33,0.24-0.718
		c0.126-1.082,0.188-2.558,0.188-4.426c0-3.863-0.04-5.959-0.12-6.289c-0.125-0.479-0.461-0.719-1.008-0.719
		c-0.251,0-0.644,0.041-1.18,0.12C628.146,252.035,627.923,252.063,627.627,252.097z"/>
</g>
<g>
	<path fill="#D1DF55" d="M42.903,173.647c0.565-0.232,1.143-0.372,1.735-0.424c3.933-0.257,6.182-0.727,6.748-1.408
		c0.565-0.682,0.848-3.982,0.848-9.899l-0.039-4.052v-4.245l-0.154-4.669l0.077-2.74l-0.038-3.01v-3.55l-0.077-1.582l0.077-2.007
		c0.025-0.463,0.038-1.003,0.038-1.621c0-1.621-0.077-3.332-0.231-5.133c-0.103-0.36-0.245-0.707-0.424-1.042
		c-0.951-0.488-2.487-0.816-4.608-0.984c-2.121-0.168-3.323-0.354-3.605-0.56c-0.206-0.154-0.322-0.553-0.347-1.195h3.244
		l10.234,0.232c2.625,0,6.127-0.077,10.505-0.232c0,0.412-0.026,0.797-0.077,1.157c-0.514,0.129-1.375,0.27-2.583,0.424
		c-2.443,0.283-3.933,0.554-4.473,0.81c-0.335,0.129-0.578,0.347-0.733,0.656c-0.258,0.464-0.412,1.326-0.463,2.586l-0.193,4.978
		l0.154,17.174v6.792c-0.052,2.136-0.077,3.59-0.077,4.361c0,2.881,0.07,4.721,0.212,5.519c0.141,0.798,0.385,1.37,0.733,1.717
		c0.347,0.348,0.919,0.625,1.716,0.83c1.182,0.283,2.108,0.438,2.776,0.463c1.439,0.052,2.352,0.257,2.738,0.617
		c0.077,0.335,0.116,0.617,0.116,0.848v0.309c-2.343,0.077-4.068,0.115-5.175,0.115c-0.644,0-1.789-0.039-3.437-0.115l-5.33,0.077
		l-9.077-0.039H42.98L42.903,173.647z"/>
	<path fill="#D1DF55" d="M70.588,131.309l1.581-5.822c0.102-0.771,0.244-1.266,0.424-1.485c0.18-0.218,0.386-0.328,0.617-0.328
		c0.463,0,0.989,0.553,1.581,1.658c0.437,0.797,0.797,1.305,1.08,1.523c0.283,0.218,0.694,0.366,1.234,0.443l0.386-0.039
		l1.658,0.155l9.1,0.115l10.758-0.037h3.162l5.977-0.113c0.256,0,0.578,0.026,0.964,0.075c1.748,0.153,2.827,0.229,3.239,0.229
		c0.386,0,0.694-0.126,0.925-0.379c0.077-0.099,0.501-0.948,1.272-2.546c0.334-0.724,0.745-1.086,1.234-1.086
		c0.206,0,0.463,0.051,0.771,0.153c0.128,0.51,0.193,0.969,0.193,1.377l-0.039,1.531l0.039,3.252c0,0.791-0.065,3.342-0.193,7.653
		c0,0.281-0.052,0.536-0.155,0.765c-0.283,0.179-0.527,0.268-0.733,0.268c-0.206,0-0.386-0.095-0.54-0.287
		c-0.154-0.191-0.347-0.783-0.578-1.778c-0.514-2.293-1.157-3.937-1.928-4.931c-0.515-0.637-1.253-1.095-2.217-1.376
		c-0.964-0.28-3.272-0.421-6.921-0.421c-2.93,0-5.103,0-6.516,0c-0.052,1.029-0.077,1.968-0.077,2.817l0.309,23.966
		c0,0.952-0.052,2.753-0.154,5.403l0.038,5.133l-0.038,2.856c0,0.901,0.154,1.544,0.463,1.929c0.308,0.386,1.143,0.76,2.506,1.119
		c2.365,0.592,3.946,0.953,4.743,1.081c0.488,0.052,0.887,0.154,1.195,0.308v1.157l-5.475-0.138
		c-3.008-0.023-5.27-0.079-6.787-0.171l-5.63,0.27l-4.126,0.232c-1.157,0-1.864-0.026-2.121-0.077l-0.54-0.232
		c0.052-0.592,0.167-0.97,0.347-1.137c0.179-0.166,0.656-0.302,1.426-0.405c1.08-0.154,2.352-0.43,3.817-0.829
		c1.465-0.398,2.429-0.803,2.892-1.215c0.257-0.232,0.437-0.617,0.54-1.157c0.231-1.131,0.347-3.355,0.347-6.67v-6.555
		l-0.154-14.305l-0.155-3.084l-0.038-10.295c-1.62,0-3.689,0-6.208,0c-3.702,0-5.951,0.225-6.748,0.673
		c-1.26,0.699-3.136,2.743-5.63,6.134c-0.823,1.272-1.542,1.908-2.159,1.908L69.2,138.52c-0.103-0.154-0.154-0.295-0.154-0.424
		c0-0.309,0.205-1.234,0.617-2.776C70.176,133.34,70.485,132.003,70.588,131.309z"/>
	<path fill="#88817F" d="M115.355,173.647c0.36-0.206,0.681-0.309,0.963-0.309h0.887c0.18,0,0.487-0.012,0.925-0.038
		c1.979-0.18,3.147-0.36,3.508-0.541c0.899-0.488,1.67-1.336,2.312-2.545c1.337-2.622,2.841-6.336,4.513-11.143
		c0.797-2.288,1.298-3.676,1.504-4.164c0.642-1.542,1.26-3.162,1.851-4.858l3.625-10.141c0.566-1.593,1.928-5.244,4.088-10.951
		c0.54-1.439,1.195-3.367,1.967-5.784l1.135-0.077l1.349,0.039c1.104,2.185,2.08,4.537,2.927,7.056
		c0.462,1.337,1.22,3.329,2.273,5.977l5.854,15.848l3.12,8.599c1.645,4.884,2.725,7.885,3.239,9.003s0.989,1.857,1.427,2.217
		c0.128,0.104,0.61,0.258,1.446,0.463c0.835,0.206,1.42,0.36,1.754,0.462c1.182,0.335,2.005,0.617,2.468,0.849
		c0.102,0.283,0.154,0.501,0.154,0.655c0,0.129-0.039,0.322-0.116,0.579c-0.823,0.026-1.401,0.039-1.735,0.039
		c-1.311,0-3.625-0.039-6.941-0.115l-3.856-0.087l-4.666,0.059c-0.308,0-0.623-0.015-0.944-0.044
		c-0.322-0.029-0.598-0.044-0.829-0.044h-0.848c-0.283-0.025-0.54-0.102-0.771-0.231c0-0.36,0.064-0.707,0.193-1.042
		c0.309-0.154,0.591-0.244,0.848-0.269l4.047-0.271c1.053-0.051,1.85-0.193,2.39-0.424c0.154-0.463,0.231-0.811,0.231-1.043
		c0-0.464-0.334-1.661-1.002-3.593c-0.462-1.287-0.867-2.51-1.213-3.67c-0.347-1.158-1.714-4.97-4.101-11.434
		c-1.054-0.18-1.98-0.271-2.776-0.271l-8.252,0.077l-2.429-0.038c-0.874,0-1.838,0.064-2.892,0.193
		c-0.335,0.771-0.554,1.324-0.656,1.658l-3.398,10.604c-1.44,4.036-2.159,6.259-2.159,6.67c0,0.232,0.116,0.617,0.347,1.157
		c0.54,0.154,1.259,0.296,2.159,0.424l5.244,0.463c0.283,0.232,0.424,0.438,0.424,0.617c0,0.129-0.039,0.321-0.116,0.578
		c-1.157,0.026-2.044,0.039-2.661,0.039c-2.057,0-4.448-0.063-7.172-0.193c-1.26-0.051-2.159-0.077-2.699-0.077
		c-0.54,0-1.478,0.026-2.815,0.077c-0.874,0.052-1.504,0.077-1.89,0.077c-0.617,0-1.414-0.039-2.391-0.116v-0.231
		C115.201,174.2,115.253,173.955,115.355,173.647z M133.755,150.512c2.75,0.154,5.886,0.231,9.408,0.231
		c2.005,0,3.766-0.064,5.283-0.193c-0.258-1.002-0.553-1.94-0.886-2.813c-1.669-4.471-2.593-6.938-2.772-7.401l-3.505-8.904
		l-0.385-0.694c-0.155,0.308-0.721,1.632-1.699,3.97c-1.648,4.009-2.831,7.131-3.552,9.366c-0.335,1.002-0.683,1.998-1.043,2.987
		c-0.36,0.989-0.585,1.683-0.675,2.082c-0.091,0.399-0.225,0.803-0.405,1.214L133.755,150.512z"/>
	<path fill="#88817F" d="M169.685,175.112c0.026-0.386,0.129-0.733,0.309-1.042c2.005-0.54,3.958-0.9,5.861-1.08
		c1.259-0.103,2.069-0.386,2.429-0.849c0.257-0.334,0.411-1.569,0.463-3.705l0.27-10.187l-0.038-6.908l0.038-9.03v-2.392
		c0.026-5.429,0-8.811-0.077-10.15c-0.026-0.257-0.129-0.618-0.31-1.081c-0.672-0.309-1.234-0.514-1.686-0.617
		c-0.452-0.103-2.473-0.476-6.063-1.119c-0.026-0.283-0.038-0.488-0.038-0.617c0-0.154,0.013-0.36,0.038-0.617
		c0.489,0,1.288,0.03,2.395,0.088l5.87,0.221l3.399,0.077l1.004-0.039c0.129,0,0.502,0.026,1.12,0.077
		c1.519,0,2.395-0.012,2.626-0.038l3.09-0.232c2.085,0,3.553,0.039,4.403,0.116c-0.026,0.463-0.116,0.964-0.27,1.504
		c-0.283,0.052-1.62,0.122-4.01,0.212c-2.391,0.09-3.766,0.238-4.126,0.443c-0.592,0.334-0.887,1.363-0.887,3.084
		c0,0.412-0.026,1.247-0.077,2.506v2.314l0.039,7.134v2.429l0.077,12.763l-0.116,10.873l0.039,2.391
		c0,0.771,0.128,1.247,0.386,1.426c0.642,0.026,2.532,0.052,5.668,0.077h2.622l6.671-0.231c1.748-0.052,2.994-0.225,3.74-0.521
		c0.745-0.295,1.992-1.163,3.74-2.602c1.054-0.925,1.876-1.876,2.468-2.854c0.128-0.205,0.347-0.514,0.656-0.925
		c0.488-0.668,1.143-2.005,1.967-4.01h1.272c-0.154,0.925-0.322,1.8-0.501,2.622c-0.746,3.624-1.26,6.645-1.542,9.061
		c-0.052,0.515-0.103,0.991-0.154,1.427l-14.421-0.424c-12.391,0-19.743,0.115-22.056,0.347c-0.72,0.051-1.478,0.077-2.275,0.077
		H169.685z"/>
	<path fill="#88817F" d="M216.149,173.647c0.565-0.232,1.143-0.372,1.735-0.424c3.933-0.257,6.182-0.727,6.748-1.408
		c0.565-0.682,0.848-3.982,0.848-9.899l-0.039-4.052v-4.245l-0.154-4.669l0.077-2.74l-0.038-3.01v-3.55l-0.077-1.582l0.077-2.007
		c0.025-0.463,0.038-1.003,0.038-1.621c0-1.621-0.077-3.332-0.231-5.133c-0.103-0.36-0.245-0.707-0.424-1.042
		c-0.951-0.488-2.487-0.816-4.608-0.984c-2.121-0.168-3.323-0.354-3.605-0.56c-0.206-0.154-0.322-0.553-0.347-1.195h3.244
		l10.234,0.232c2.625,0,6.127-0.077,10.505-0.232c0,0.412-0.026,0.797-0.077,1.157c-0.514,0.129-1.375,0.27-2.583,0.424
		c-2.443,0.283-3.933,0.554-4.473,0.81c-0.335,0.129-0.578,0.347-0.733,0.656c-0.258,0.464-0.412,1.326-0.463,2.586l-0.193,4.978
		l0.154,17.174v6.792c-0.052,2.136-0.077,3.59-0.077,4.361c0,2.881,0.07,4.721,0.212,5.519c0.141,0.798,0.385,1.37,0.733,1.717
		c0.347,0.348,0.919,0.625,1.716,0.83c1.182,0.283,2.108,0.438,2.776,0.463c1.439,0.052,2.352,0.257,2.738,0.617
		c0.077,0.335,0.116,0.617,0.116,0.848v0.309c-2.343,0.077-4.068,0.115-5.175,0.115c-0.644,0-1.789-0.039-3.437-0.115l-5.33,0.077
		l-9.077-0.039h-0.734L216.149,173.647z"/>
	<path fill="#88817F" d="M242.023,173.647c0.36-0.206,0.681-0.309,0.963-0.309h0.887c0.18,0,0.487-0.012,0.925-0.038
		c1.979-0.18,3.147-0.36,3.508-0.541c0.899-0.488,1.67-1.336,2.312-2.545c1.337-2.622,2.841-6.336,4.513-11.143
		c0.797-2.288,1.298-3.676,1.504-4.164c0.642-1.542,1.26-3.162,1.851-4.858l3.625-10.141c0.566-1.593,1.928-5.244,4.088-10.951
		c0.54-1.439,1.195-3.367,1.967-5.784l1.135-0.077l1.349,0.039c1.104,2.185,2.08,4.537,2.927,7.056
		c0.462,1.337,1.22,3.329,2.273,5.977l5.854,15.848l3.12,8.599c1.645,4.884,2.725,7.885,3.239,9.003s0.989,1.857,1.427,2.217
		c0.128,0.104,0.61,0.258,1.446,0.463c0.835,0.206,1.42,0.36,1.754,0.462c1.182,0.335,2.005,0.617,2.468,0.849
		c0.102,0.283,0.154,0.501,0.154,0.655c0,0.129-0.039,0.322-0.116,0.579c-0.823,0.026-1.401,0.039-1.735,0.039
		c-1.311,0-3.625-0.039-6.941-0.115l-3.856-0.087l-4.666,0.059c-0.308,0-0.623-0.015-0.944-0.044
		c-0.322-0.029-0.598-0.044-0.829-0.044h-0.848c-0.283-0.025-0.54-0.102-0.771-0.231c0-0.36,0.064-0.707,0.193-1.042
		c0.309-0.154,0.591-0.244,0.848-0.269l4.047-0.271c1.053-0.051,1.85-0.193,2.39-0.424c0.154-0.463,0.231-0.811,0.231-1.043
		c0-0.464-0.334-1.661-1.003-3.593c-0.462-1.287-0.866-2.51-1.213-3.67c-0.347-1.158-1.714-4.97-4.101-11.434
		c-1.054-0.18-1.98-0.271-2.776-0.271l-8.252,0.077l-2.429-0.038c-0.874,0-1.838,0.064-2.892,0.193
		c-0.335,0.771-0.554,1.324-0.656,1.658l-3.398,10.604c-1.44,4.036-2.159,6.259-2.159,6.67c0,0.232,0.116,0.617,0.347,1.157
		c0.54,0.154,1.259,0.296,2.159,0.424l5.244,0.463c0.283,0.232,0.424,0.438,0.424,0.617c0,0.129-0.039,0.321-0.116,0.578
		c-1.157,0.026-2.044,0.039-2.66,0.039c-2.057,0-4.448-0.063-7.172-0.193c-1.26-0.051-2.159-0.077-2.699-0.077
		c-0.54,0-1.478,0.026-2.815,0.077c-0.874,0.052-1.504,0.077-1.89,0.077c-0.617,0-1.414-0.039-2.391-0.116v-0.231
		C241.868,174.2,241.92,173.955,242.023,173.647z M260.422,150.512c2.75,0.154,5.886,0.231,9.408,0.231
		c2.005,0,3.766-0.064,5.283-0.193c-0.258-1.002-0.553-1.94-0.886-2.813c-1.669-4.471-2.593-6.938-2.772-7.401l-3.505-8.904
		l-0.385-0.694c-0.155,0.308-0.721,1.632-1.699,3.97c-1.648,4.009-2.831,7.131-3.552,9.366c-0.335,1.002-0.683,1.998-1.043,2.987
		c-0.36,0.989-0.585,1.683-0.675,2.082c-0.091,0.399-0.225,0.803-0.405,1.214L260.422,150.512z"/>
	<path fill="#88817F" d="M296.97,127.723l-0.039-1.851c3.984,0,6.902-0.102,8.753-0.308c0.719-0.077,1.221-0.116,1.504-0.116
		c0.232,0,0.579,0.013,1.041,0.039c1.08,0.9,2.082,1.928,3.007,3.084c0.206,0.232,0.437,0.489,0.694,0.771l8.136,8.984l1.157,1.388
		c1.645,1.928,3.143,3.573,4.492,4.935c1.349,1.363,3.977,4.203,7.885,8.522l9.216,10.218c0.899,1.002,2.056,2.249,3.47,3.74
		l0.039-0.617c-0.155-3.572-0.232-5.462-0.232-5.668l0.154-2.314l-0.077-3.625v-1.658c0-1.054-0.09-4.305-0.27-9.755
		c-0.026-0.745-0.129-2.153-0.308-4.223c-0.18-2.069-0.27-3.888-0.27-5.456c0-2.827-0.167-4.473-0.501-4.935
		c-0.232-0.334-1.324-0.681-3.278-1.041c-0.463-0.025-1.183-0.103-2.159-0.231c-1.157-0.052-1.839-0.116-2.044-0.193
		c-0.206-0.077-0.412-0.295-0.617-0.656c0.051-0.411,0.167-0.796,0.347-1.157c0.694-0.205,1.375-0.308,2.044-0.308
		c0.719,0,1.613,0.09,2.68,0.27c1.066,0.18,2.024,0.27,2.873,0.27c1.182,0,3.02-0.077,5.514-0.232
		c1.413-0.102,2.391-0.154,2.93-0.154h0.656l-0.077,1.195c-0.412,0.18-0.977,0.289-1.697,0.328c-0.72,0.039-1.388,0.148-2.005,0.328
		c-0.925,0.283-1.478,0.527-1.658,0.733c-0.617,0.669-0.925,1.349-0.925,2.044l0.424,12.185l0.309,5.591l-0.039,1.62l0.232,7.75
		c0.154,5.296,0.231,9.897,0.231,13.804c0,0.848-0.051,2.686-0.154,5.514l-1.798,0.154c-0.9-1.028-3.999-4.267-9.296-9.717
		c-1.235-1.259-2.07-2.146-2.507-2.661l-3.317-3.817c-1.286-1.414-2.122-2.314-2.508-2.699c-0.385-0.386-0.669-0.668-0.848-0.848
		c-2.803-3.187-6.443-7.172-10.917-11.954c-1.208-1.285-2.983-3.29-5.323-6.015c-1.466-1.722-2.392-2.776-2.778-3.162
		s-0.913-0.822-1.582-1.311l-0.115,1.311c0,5.012,0.128,11.928,0.385,20.745l0.27,12.763c0.025,1.08,0.089,2.121,0.192,3.123
		l1.35,0.308c2.442,0.232,4.845,0.579,7.211,1.042c0.18,0.154,0.334,0.269,0.463,0.347l-0.039,1.465
		c-0.411,0.129-0.746,0.193-1.002,0.193c-0.283,0-0.63-0.026-1.041-0.077c-2.545-0.206-5.643-0.308-9.293-0.308
		c-2.571,0-4.833,0.064-6.787,0.193l-0.54,0.039c-0.231,0-0.566-0.026-1.002-0.077l-0.039-1.156l1.003-0.463l1.812-0.27
		c1.619-0.231,2.801-0.488,3.548-0.771c0.488-0.18,0.887-0.45,1.195-0.81c0.282-1.773,0.424-4.37,0.424-7.789
		c0-1.593-0.038-4.511-0.116-8.753v-5.244l-0.077-10.951c-0.052-4.884-0.219-7.763-0.501-8.637
		c-0.155-0.463-0.476-0.874-0.964-1.234c-0.977-0.694-2.256-1.131-3.836-1.311C298.454,128.007,297.432,127.852,296.97,127.723z"/>
	<path fill="#88817F" d="M377.481,174.148c0.951-0.411,2.056-0.681,3.316-0.81c1.825-0.206,3.187-0.643,4.087-1.312
		c0.694-1.415,1.041-5.017,1.041-10.805v-6.097l0.077-3.666l-0.077-2.701l0.077-4.978l-0.116-12.542
		c0-1.415-0.206-2.342-0.617-2.779c-0.592-0.643-2.159-1.234-4.704-1.775c-1.054-0.232-1.697-0.444-1.928-0.637
		c-0.231-0.192-0.373-0.559-0.424-1.099c0.591-0.128,1.002-0.193,1.234-0.193h2.738l1.427-0.038c0.951,0,2.005,0.103,3.162,0.309
		c2.364,0.154,4.794,0.231,7.287,0.231c0.719,0,1.748-0.039,3.085-0.116c3.547-0.205,6.092-0.308,7.634-0.308
		c3.11,0,6.047,0.308,8.811,0.925c2.763,0.617,5.61,1.761,8.541,3.431c1.825,1.054,3.695,2.719,5.611,4.993
		c1.914,2.275,3.367,4.756,4.357,7.442c0.989,2.686,1.484,5.713,1.484,9.081c0,3.007-0.546,5.99-1.638,8.946
		c-1.093,2.956-2.616,5.52-4.569,7.692c-1.954,2.173-3.933,3.805-5.938,4.897c-2.005,1.093-5.065,2.037-9.177,2.834
		c-1.697,0.308-4.743,0.462-9.139,0.462c-2.905,0-5.27-0.09-7.094-0.269c-0.72-0.103-1.492-0.154-2.314-0.154
		c-0.129,0-0.269,0.012-0.424,0.039l-15.732,0.308l-0.077-0.308c-0.052-0.129-0.077-0.27-0.077-0.424L377.481,174.148z
		 M397.108,172.605c1.953,0.669,3.933,1.003,5.938,1.003c2.596,0,5.141-0.405,7.634-1.215s4.698-1.953,6.613-3.431
		c1.915-1.478,3.49-3.149,4.724-5.013c1.234-1.863,2.107-3.541,2.622-5.032c0.719-2.185,1.08-5.026,1.08-8.522
		c0-3.342-0.707-6.735-2.121-10.18c-0.977-2.391-2.693-4.678-5.147-6.864c-2.455-2.185-5.354-3.785-8.696-4.801
		c-3.342-1.015-6.953-1.523-10.835-1.523c-2.674,0-4.653,0.296-5.938,0.887c-0.154,0.155-0.308,0.335-0.462,0.54
		c-0.155,0.643-0.232,1.234-0.232,1.774c0,0.335,0.012,0.733,0.039,1.195c0.077,2.982,0.115,5.373,0.115,7.172l-0.039,8.753
		c0,12.853,0.237,20.005,0.714,21.457C393.592,170.26,394.922,171.526,397.108,172.605z"/>
	<path fill="#88817F" d="M441.065,150.242c0-2.622,0.315-4.955,0.945-6.999c0.63-2.044,1.69-4.261,3.181-6.651
		c1.491-2.391,3.29-4.389,5.398-5.996c2.107-1.606,5.025-3.027,8.752-4.261c2.622-0.848,5.938-1.272,9.949-1.272
		c2.699,0,5.34,0.361,7.923,1.08c2.583,0.72,4.93,1.723,7.038,3.008c2.107,1.286,4.215,3.265,6.324,5.938
		c1.465,1.851,2.569,3.843,3.316,5.977c0.977,2.802,1.465,5.694,1.465,8.676c0,3.393-0.328,6.208-0.984,8.445
		c-0.655,2.236-1.754,4.447-3.296,6.632c-1.209,1.696-3.277,3.65-6.208,5.861c-1.954,1.491-4.382,2.693-7.287,3.605
		c-2.906,0.912-6.041,1.369-9.408,1.369c-3.419,0-6.466-0.399-9.139-1.196c-2.674-0.796-4.903-1.767-6.69-2.911
		c-1.787-1.144-3.625-2.835-5.514-5.071c-1.89-2.236-3.323-4.703-4.3-7.403C441.554,156.373,441.065,153.429,441.065,150.242z
		 M467.826,174.226c2.159,0,4.401-0.302,6.729-0.906c2.326-0.604,4.389-1.606,6.189-3.008c1.799-1.401,3.206-2.994,4.222-4.781
		c1.015-1.786,1.832-4.08,2.449-6.882c0.616-2.802,0.925-5.604,0.925-8.406c0-3.496-0.515-6.953-1.543-10.373
		c-0.797-2.596-2.096-4.916-3.895-6.96c-1.8-2.044-3.971-3.625-6.517-4.743c-2.545-1.118-5.257-1.677-8.136-1.677
		c-2.34,0-4.627,0.385-6.864,1.157c-2.236,0.771-4.074,1.754-5.514,2.95c-1.44,1.195-2.776,2.892-4.01,5.09
		c-1.234,2.198-2.172,4.621-2.815,7.268c-0.643,2.648-0.964,4.988-0.964,7.018c0,2.134,0.321,4.55,0.964,7.249
		s1.523,5.039,2.641,7.018c1.118,1.979,2.494,3.734,4.126,5.263c1.632,1.529,3.464,2.699,5.495,3.509
		C463.34,173.82,465.512,174.226,467.826,174.226z"/>
	<path fill="#88817F" d="M544.828,127.685c0.308,1.98,0.462,4.01,0.462,6.092c0,0.412-0.013,0.964-0.039,1.658
		c-0.36,0.077-0.63,0.116-0.809,0.116c-0.154,0-0.373-0.026-0.656-0.077c-1.08-3.007-2.841-5.321-5.282-6.94
		c-2.443-1.62-5.463-2.429-9.061-2.429c-1.903,0-3.509,0.219-4.82,0.656c-2.313,0.797-4.344,1.896-6.092,3.297
		c-1.749,1.401-3.226,3.072-4.434,5.013c-1.209,1.941-2.166,4.293-2.873,7.056c-0.707,2.764-1.061,5.585-1.061,8.464
		c0,5.501,0.836,10.045,2.507,13.63c1.67,3.586,3.958,6.144,6.864,7.673c2.904,1.529,5.834,2.294,8.791,2.294l1.812-0.039
		c2.057-0.256,3.457-0.501,4.204-0.733c1.876-0.54,3.425-1.176,4.646-1.909c1.22-0.733,2.416-1.768,3.586-3.104
		c1.17-1.337,2.166-2.892,2.989-4.665l0.462-0.155c0.129,0,0.321,0.077,0.578,0.232c-0.026,0.617-0.052,1.016-0.077,1.195
		c-1.08,4.344-1.864,7.313-2.353,8.907c-0.411,0.103-0.925,0.257-1.542,0.463c-3.008,1.028-7.031,1.542-12.069,1.542
		c-4.062,0-7.102-0.276-9.119-0.829c-2.018-0.552-4.217-1.413-6.594-2.583c-2.377-1.169-4.466-2.718-6.265-4.646
		c-1.8-1.928-3.253-4.363-4.358-7.307c-1.105-2.943-1.658-6.15-1.658-9.621c0-3.29,0.437-6.163,1.311-8.618
		c0.874-2.454,2.223-4.942,4.049-7.461c1.825-2.519,3.978-4.614,6.459-6.285c2.48-1.671,5.238-2.853,8.271-3.547
		c2.133-0.463,5.154-0.694,9.061-0.694c2.853,0,5.539,0.379,8.059,1.138C542.296,126.226,543.979,126.965,544.828,127.685z"/>
	<path fill="#88817F" d="M550.689,131.309l1.581-5.822c0.102-0.771,0.244-1.266,0.424-1.485c0.18-0.218,0.386-0.328,0.616-0.328
		c0.463,0,0.99,0.553,1.581,1.658c0.437,0.797,0.796,1.305,1.08,1.523c0.283,0.218,0.694,0.366,1.234,0.443l0.386-0.039l1.658,0.155
		l9.1,0.115l10.758-0.037h3.162l5.976-0.113c0.257,0,0.578,0.026,0.964,0.075c1.748,0.153,2.827,0.229,3.239,0.229
		c0.385,0,0.694-0.126,0.925-0.379c0.077-0.099,0.501-0.948,1.272-2.546c0.334-0.724,0.745-1.086,1.234-1.086
		c0.205,0,0.462,0.051,0.771,0.153c0.129,0.51,0.193,0.969,0.193,1.377l-0.039,1.531l0.039,3.252c0,0.791-0.064,3.342-0.193,7.653
		c0,0.281-0.052,0.536-0.154,0.765c-0.283,0.179-0.527,0.268-0.733,0.268c-0.206,0-0.386-0.095-0.54-0.287
		c-0.155-0.191-0.348-0.783-0.578-1.778c-0.515-2.293-1.157-3.937-1.928-4.931c-0.514-0.637-1.253-1.095-2.217-1.376
		c-0.964-0.28-3.272-0.421-6.921-0.421c-2.931,0-5.103,0-6.517,0c-0.052,1.029-0.077,1.968-0.077,2.817l0.309,23.966
		c0,0.952-0.052,2.753-0.155,5.403l0.039,5.133l-0.039,2.856c0,0.901,0.155,1.544,0.463,1.929c0.308,0.386,1.144,0.76,2.506,1.119
		c2.365,0.592,3.946,0.953,4.743,1.081c0.488,0.052,0.887,0.154,1.195,0.308v1.157l-5.475-0.138
		c-3.008-0.023-5.27-0.079-6.786-0.171l-5.63,0.27l-4.126,0.232c-1.156,0-1.864-0.026-2.12-0.077l-0.54-0.232
		c0.051-0.592,0.167-0.97,0.347-1.137c0.18-0.166,0.655-0.302,1.427-0.405c1.08-0.154,2.352-0.43,3.817-0.829
		c1.466-0.398,2.429-0.803,2.892-1.215c0.256-0.232,0.437-0.617,0.54-1.157c0.232-1.131,0.347-3.355,0.347-6.67v-6.555
		l-0.154-14.305l-0.154-3.084l-0.039-10.295c-1.619,0-3.689,0-6.208,0c-3.702,0-5.951,0.225-6.747,0.673
		c-1.26,0.699-3.136,2.743-5.63,6.134c-0.822,1.272-1.542,1.908-2.159,1.908l-0.347-0.077c-0.102-0.154-0.154-0.295-0.154-0.424
		c0-0.309,0.205-1.234,0.616-2.776C550.278,133.34,550.586,132.003,550.689,131.309z"/>
	<path fill="#88817F" d="M601.471,150.242c0-2.622,0.315-4.955,0.945-6.999c0.63-2.044,1.69-4.261,3.181-6.651
		c1.491-2.391,3.291-4.389,5.398-5.996c2.107-1.606,5.025-3.027,8.752-4.261c2.622-0.848,5.938-1.272,9.949-1.272
		c2.699,0,5.34,0.361,7.923,1.08c2.583,0.72,4.93,1.723,7.038,3.008c2.107,1.286,4.215,3.265,6.324,5.938
		c1.465,1.851,2.569,3.843,3.316,5.977c0.977,2.802,1.465,5.694,1.465,8.676c0,3.393-0.328,6.208-0.984,8.445
		c-0.655,2.236-1.754,4.447-3.296,6.632c-1.209,1.696-3.277,3.65-6.208,5.861c-1.954,1.491-4.382,2.693-7.287,3.605
		c-2.906,0.912-6.041,1.369-9.408,1.369c-3.419,0-6.466-0.399-9.139-1.196c-2.674-0.796-4.903-1.767-6.69-2.911
		c-1.787-1.144-3.625-2.835-5.514-5.071c-1.89-2.236-3.323-4.703-4.3-7.403C601.96,156.373,601.471,153.429,601.471,150.242z
		 M628.232,174.226c2.159,0,4.401-0.302,6.729-0.906c2.326-0.604,4.389-1.606,6.189-3.008c1.799-1.401,3.206-2.994,4.222-4.781
		c1.015-1.786,1.832-4.08,2.449-6.882c0.616-2.802,0.925-5.604,0.925-8.406c0-3.496-0.515-6.953-1.543-10.373
		c-0.797-2.596-2.096-4.916-3.895-6.96c-1.8-2.044-3.971-3.625-6.517-4.743c-2.545-1.118-5.257-1.677-8.136-1.677
		c-2.34,0-4.627,0.385-6.864,1.157c-2.236,0.771-4.074,1.754-5.514,2.95c-1.44,1.195-2.776,2.892-4.01,5.09
		s-2.172,4.621-2.815,7.268c-0.643,2.648-0.964,4.988-0.964,7.018c0,2.134,0.321,4.55,0.964,7.249
		c0.643,2.699,1.523,5.039,2.641,7.018c1.118,1.979,2.494,3.734,4.126,5.263c1.633,1.529,3.464,2.699,5.495,3.509
		C623.746,173.82,625.918,174.226,628.232,174.226z"/>
	<path fill="#88817F" d="M661.737,173.685c3.735-0.436,5.846-0.744,6.332-0.925c0.333-0.128,0.639-0.513,0.921-1.155v-0.424
		c0-0.641,0.102-2.966,0.307-6.972c0.05-1.131,0.077-2.235,0.077-3.313l-0.116-4.585l0.077-5.201l-0.039-9.67l0.039-6.935
		c0.026-2.928-0.199-4.713-0.675-5.356c-0.475-0.642-1.703-1.098-3.682-1.368c-1.98-0.27-3.072-0.468-3.278-0.597
		c-0.206-0.128-0.308-0.334-0.308-0.617c0-0.18,0.039-0.411,0.115-0.694c0.257-0.231,0.849-0.36,1.774-0.385
		c0.128,0,0.482-0.032,1.061-0.096c0.578-0.064,1.124-0.096,1.638-0.096h3.162l10.141-0.116c5.732,0,9.749,0.424,12.05,1.272
		c2.301,0.848,4.132,2.282,5.495,4.3c1.362,2.018,2.044,4.274,2.044,6.767c0,4.73-2.478,8.342-7.433,10.835
		c-0.847,0.438-1.515,0.823-2.003,1.157c0.873,1.849,2.091,4.07,3.657,6.663l4.888,8.397c1.954,3.091,3.304,5.028,4.049,5.813
		c0.746,0.786,1.652,1.436,2.719,1.951c1.066,0.515,2.86,1.005,5.38,1.468c0.026,0.257,0.039,0.462,0.039,0.617
		c0,0.154-0.013,0.347-0.039,0.578c-3.522,0.052-7.647,0.077-12.378,0.077c-0.335,0-0.797-0.026-1.388-0.077
		c-1.826-3.501-3.972-7.35-6.439-11.546l-5.707-10.428c-0.771-1.081-1.407-1.756-1.909-2.026c-0.501-0.27-1.163-0.405-1.985-0.405
		l-3.278,0.037l-1.08-0.037c-0.077,0.823-0.115,2.506-0.115,5.051v13.186c-0.026,0.489,0.077,1.17,0.308,2.044
		c0.205,0.489,0.56,0.881,1.061,1.176c0.501,0.296,1.947,0.739,4.338,1.33l1.581,0.386c0.206,0.257,0.309,0.604,0.309,1.041
		c-0.694,0.129-1.182,0.193-1.464,0.193c-2.31,0-3.939-0.026-4.888-0.077c-0.488-0.026-0.886-0.039-1.193-0.039l-5.235,0.077
		l-5.119-0.039c-0.232,0-1.398,0.039-3.502,0.115l-0.77-0.154l-0.077-0.386C661.2,174.263,661.379,173.994,661.737,173.685z
		 M676.045,148.468c0.694,0.026,1.208,0.038,1.542,0.038c1.851,0,3.984-0.218,6.401-0.654c1.697-0.333,3.071-0.878,4.125-1.636
		c1.054-0.756,1.934-1.88,2.642-3.368c0.706-1.488,1.06-3.028,1.06-4.619c0-1.745-0.553-3.592-1.658-5.542
		c-0.848-1.488-2.281-2.732-4.299-3.733c-2.018-1.001-4.441-1.501-7.268-1.501c-0.694,0-1.595,0.039-2.699,0.116
		c-0.103,1.335-0.155,2.361-0.155,3.079l0.193,7.197l-0.038,2.963C675.891,142.81,675.942,145.363,676.045,148.468z"/>
	<g>
		<path fill="#88817F" d="M746.694,139.209h-2.61c-0.595-2.942-1.271-5.088-2.026-6.444c-0.755-1.351-1.906-2.415-3.451-3.182
			c-1.545-0.773-3.279-1.156-5.202-1.156c-2.724,0-4.893,0.755-6.507,2.266c-1.614,1.517-2.421,3.348-2.421,5.506
			c0,1.9,0.664,3.56,1.992,4.979c1.302,1.425,4.493,3.216,9.566,5.385c5.073,2.169,8.524,4.412,10.356,6.725
			c1.803,2.341,2.707,4.968,2.707,7.875c0,2.615-0.681,5.048-2.043,7.291c-1.362,2.249-3.411,4.04-6.146,5.385
			c-2.736,1.339-5.683,2.009-8.842,2.009c-2.152,0-4.309-0.206-6.473-0.618c-2.163-0.412-4.756-1.122-7.778-2.129
			c0.343-3.228,0.515-7.509,0.515-12.842h2.644c0.755,3.434,1.537,5.837,2.349,7.211c0.81,1.374,2.037,2.501,3.686,3.382
			c1.645,0.881,3.451,1.322,5.417,1.322c2.696,0,5.062-0.755,7.096-2.266c2.032-1.511,3.05-3.634,3.05-6.358
			c0-2.226-0.733-4.195-2.198-5.912c-1.488-1.694-4.71-3.611-9.666-5.757c-4.956-2.14-8.27-4.195-9.941-6.164
			c-1.671-1.946-2.507-4.264-2.507-6.965c0-2.358,0.675-4.601,2.026-6.742c1.351-2.14,3.337-3.829,5.958-5.076
			c2.621-1.248,5.34-1.871,8.155-1.871c3.388,0,7.486,0.813,12.293,2.438c-0.115,3.342-0.172,5.357-0.172,6.043
			C746.522,134.939,746.579,136.828,746.694,139.209z"/>
	</g>
</g>
</svg>
